<?xml version="1.0" encoding="UTF-8"?>
<svg id="Layer_2" data-name="Layer 2" xmlns="http://www.w3.org/2000/svg" xmlns:xlink="http://www.w3.org/1999/xlink" viewBox="0 0 533.68 533.68">
  <defs>
    <style>
      .cls-1 {
        fill: none;
      }

      .cls-2 {
        fill: #e6bf7f;
      }

      .cls-3 {
        fill: url(#linear-gradient-8);
      }

      .cls-4 {
        fill: url(#linear-gradient-7);
      }

      .cls-5 {
        fill: url(#linear-gradient-5);
      }

      .cls-6 {
        fill: url(#linear-gradient-6);
      }

      .cls-7 {
        fill: url(#linear-gradient-9);
      }

      .cls-8 {
        fill: url(#linear-gradient-4);
      }

      .cls-9 {
        fill: url(#linear-gradient-3);
      }

      .cls-10 {
        fill: url(#linear-gradient);
      }

      .cls-11 {
        clip-path: url(#clippath-1);
      }

      .cls-12 {
        clip-path: url(#clippath-3);
      }

      .cls-13 {
        clip-path: url(#clippath-4);
      }

      .cls-14 {
        clip-path: url(#clippath-2);
      }

      .cls-15 {
        clip-path: url(#clippath-5);
      }

      .cls-16 {
        fill: url(#New_Gradient_Swatch_copy_2);
      }

      .cls-17 {
        fill: url(#linear-gradient-2);
        stroke: url(#New_Gradient_Swatch_copy_2-2);
      }

      .cls-17, .cls-18 {
        stroke-miterlimit: 10;
        stroke-width: .25px;
      }

      .cls-19 {
        fill: url(#linear-gradient-41);
      }

      .cls-20 {
        fill: url(#linear-gradient-10);
      }

      .cls-21 {
        fill: url(#linear-gradient-11);
      }

      .cls-22 {
        fill: url(#linear-gradient-12);
      }

      .cls-23 {
        fill: url(#linear-gradient-13);
      }

      .cls-24 {
        fill: url(#linear-gradient-14);
      }

      .cls-25 {
        fill: url(#New_Gradient_Swatch_copy);
      }

      .cls-25, .cls-26, .cls-27, .cls-28, .cls-29, .cls-30, .cls-31, .cls-32, .cls-33, .cls-34, .cls-35, .cls-36, .cls-37, .cls-38, .cls-39, .cls-40, .cls-41, .cls-42, .cls-43, .cls-44, .cls-45, .cls-46, .cls-47, .cls-48, .cls-49, .cls-50, .cls-51, .cls-52 {
        fill-rule: evenodd;
      }

      .cls-26 {
        fill: url(#linear-gradient-21);
      }

      .cls-27 {
        fill: url(#linear-gradient-19);
      }

      .cls-28 {
        fill: url(#linear-gradient-32);
      }

      .cls-29 {
        fill: url(#linear-gradient-28);
      }

      .cls-30 {
        fill: url(#linear-gradient-25);
      }

      .cls-31 {
        fill: url(#linear-gradient-20);
      }

      .cls-32 {
        fill: url(#linear-gradient-22);
      }

      .cls-33 {
        fill: url(#linear-gradient-23);
      }

      .cls-34 {
        fill: url(#linear-gradient-18);
      }

      .cls-35 {
        fill: url(#linear-gradient-35);
      }

      .cls-36 {
        fill: url(#linear-gradient-17);
      }

      .cls-37 {
        fill: url(#linear-gradient-36);
      }

      .cls-38 {
        fill: url(#linear-gradient-38);
      }

      .cls-39 {
        fill: url(#linear-gradient-34);
      }

      .cls-40 {
        fill: url(#linear-gradient-30);
      }

      .cls-41 {
        fill: url(#linear-gradient-33);
      }

      .cls-42 {
        fill: url(#linear-gradient-31);
      }

      .cls-43 {
        fill: url(#linear-gradient-16);
      }

      .cls-44 {
        fill: url(#linear-gradient-15);
      }

      .cls-45 {
        fill: url(#linear-gradient-29);
      }

      .cls-46 {
        fill: url(#linear-gradient-26);
      }

      .cls-47 {
        fill: url(#linear-gradient-27);
      }

      .cls-48 {
        fill: url(#linear-gradient-24);
      }

      .cls-49 {
        fill: url(#linear-gradient-39);
      }

      .cls-50 {
        fill: url(#linear-gradient-37);
      }

      .cls-51 {
        fill: url(#linear-gradient-40);
      }

      .cls-18 {
        fill: url(#linear-gradient-42);
        stroke: url(#New_Gradient_Swatch_copy_2-3);
      }

      .cls-52 {
        fill: url(#New_Gradient_Swatch_copy-2);
      }

      .cls-53 {
        clip-path: url(#clippath);
      }
    </style>
    <clipPath id="clippath">
      <rect class="cls-1" x="188.97" y="152.14" width="158.82" height="159.33" transform="translate(-82.69 181.73) rotate(-32.7)"/>
    </clipPath>
    <clipPath id="clippath-1">
      <rect class="cls-1" x="189.32" y="152.14" width="158.45" height="160.34" transform="translate(-79.26 160.8) rotate(-29.24)"/>
    </clipPath>
    <clipPath id="clippath-2">
      <rect class="cls-1" x="189.32" y="152.14" width="158.45" height="160.34" transform="translate(-79.26 160.8) rotate(-29.24)"/>
    </clipPath>
    <clipPath id="clippath-3">
      <rect class="cls-1" x="188.97" y="152.14" width="158.82" height="159.33" transform="translate(-82.69 181.73) rotate(-32.7)"/>
    </clipPath>
    <clipPath id="clippath-4">
      <rect class="cls-1" x="189.32" y="152.14" width="158.45" height="160.34" transform="translate(-79.26 160.8) rotate(-29.24)"/>
    </clipPath>
    <clipPath id="clippath-5">
      <rect class="cls-1" x="189.32" y="152.14" width="158.45" height="160.34" transform="translate(-79.26 160.8) rotate(-29.24)"/>
    </clipPath>
    <linearGradient id="New_Gradient_Swatch_copy_2" data-name="New Gradient Swatch copy 2" x1="180.73" y1="233.78" x2="350.32" y2="233.78" gradientTransform="translate(321.82 -117.44) rotate(57.3)" gradientUnits="userSpaceOnUse">
      <stop offset="0" stop-color="#b07908"/>
      <stop offset=".48" stop-color="#f4db76"/>
      <stop offset="1" stop-color="#b07908"/>
    </linearGradient>
    <clipPath id="clippath-6">
      <rect class="cls-1" x="188.97" y="152.14" width="158.82" height="159.33" transform="translate(-82.69 181.73) rotate(-32.7)"/>
    </clipPath>
    <clipPath id="clippath-7">
      <rect class="cls-1" x="189.32" y="152.14" width="158.45" height="160.34" transform="translate(-79.26 160.8) rotate(-29.24)"/>
    </clipPath>
    <linearGradient id="linear-gradient" x1="185.75" y1="357.61" x2="214.08" y2="357.61" gradientUnits="userSpaceOnUse">
      <stop offset="0" stop-color="#b07908"/>
      <stop offset=".48" stop-color="#f4db76"/>
      <stop offset="1" stop-color="#b07908"/>
    </linearGradient>
    <linearGradient id="linear-gradient-2" x1="125.95" y1="311.11" x2="193.29" y2="311.11" xlink:href="#linear-gradient"/>
    <linearGradient id="New_Gradient_Swatch_copy_2-2" data-name="New Gradient Swatch copy 2" x1="125.83" y1="311.43" x2="193.42" y2="311.43" gradientTransform="matrix(1,0,0,1,0,0)" xlink:href="#New_Gradient_Swatch_copy_2"/>
    <linearGradient id="linear-gradient-3" x1="327.27" x2="355.58" xlink:href="#linear-gradient"/>
    <linearGradient id="linear-gradient-4" x1="242.34" y1="307.19" x2="325.21" y2="307.19" gradientTransform="translate(452.94) rotate(-180) scale(1 -1)" xlink:href="#linear-gradient"/>
    <linearGradient id="linear-gradient-5" x1="331.95" y1="307.19" x2="413.59" y2="307.19" xlink:href="#linear-gradient"/>
    <linearGradient id="linear-gradient-6" x1="229.97" y1="434.03" x2="303.48" y2="434.03" xlink:href="#linear-gradient"/>
    <linearGradient id="linear-gradient-7" x1="229.5" y1="438.43" x2="310.96" y2="438.43" xlink:href="#linear-gradient"/>
    <linearGradient id="linear-gradient-8" x1="241.85" y1="386.26" x2="299.71" y2="386.26" xlink:href="#linear-gradient"/>
    <linearGradient id="linear-gradient-9" x1="241.88" y1="384.77" x2="296.16" y2="384.77" xlink:href="#linear-gradient"/>
    <linearGradient id="linear-gradient-10" x1="171.24" y1="234.14" x2="370.1" y2="234.14" xlink:href="#linear-gradient"/>
    <linearGradient id="linear-gradient-11" x1="179.32" y1="313.98" x2="362.09" y2="313.98" xlink:href="#linear-gradient"/>
    <linearGradient id="linear-gradient-12" x1="179.32" y1="313.45" x2="345.81" y2="313.45" xlink:href="#linear-gradient"/>
    <linearGradient id="linear-gradient-13" x1="0" y1="266.84" x2="533.68" y2="266.84" xlink:href="#linear-gradient"/>
    <linearGradient id="linear-gradient-14" x1="68.76" y1="266.84" x2="464.92" y2="266.84" xlink:href="#linear-gradient"/>
    <linearGradient id="linear-gradient-15" x1="246.13" y1="113.1" x2="287.55" y2="113.1" xlink:href="#linear-gradient"/>
    <linearGradient id="linear-gradient-16" x1="186.11" y1="132.03" x2="212.35" y2="132.03" xlink:href="#linear-gradient"/>
    <linearGradient id="linear-gradient-17" x1="321.34" y1="132.03" x2="347.57" y2="132.03" xlink:href="#linear-gradient"/>
    <linearGradient id="linear-gradient-18" x1="198.94" y1="489.96" x2="240.01" y2="489.96" xlink:href="#linear-gradient"/>
    <linearGradient id="linear-gradient-19" x1="163.3" y1="479.45" x2="206.17" y2="479.45" xlink:href="#linear-gradient"/>
    <linearGradient id="linear-gradient-20" x1="129.62" y1="464.04" x2="174.01" y2="464.04" xlink:href="#linear-gradient"/>
    <linearGradient id="linear-gradient-21" x1="99.66" y1="444.65" x2="144.8" y2="444.65" xlink:href="#linear-gradient"/>
    <linearGradient id="linear-gradient-22" x1="73.45" y1="421.45" x2="119.05" y2="421.45" xlink:href="#linear-gradient"/>
    <linearGradient id="linear-gradient-23" x1="51.58" y1="394.98" x2="97.32" y2="394.98" xlink:href="#linear-gradient"/>
    <linearGradient id="linear-gradient-24" x1="34.59" y1="365.84" x2="80.14" y2="365.84" xlink:href="#linear-gradient"/>
    <linearGradient id="linear-gradient-25" x1="22.91" y1="334.65" x2="67.97" y2="334.65" xlink:href="#linear-gradient"/>
    <linearGradient id="linear-gradient-26" x1="16.53" y1="301.93" x2="61.13" y2="301.93" xlink:href="#linear-gradient"/>
    <linearGradient id="linear-gradient-27" x1="15.32" y1="268.43" x2="59.77" y2="268.43" xlink:href="#linear-gradient"/>
    <linearGradient id="linear-gradient-28" x1="31.6" y1="236.24" x2="47.5" y2="236.24" xlink:href="#linear-gradient"/>
    <linearGradient id="linear-gradient-29" x1="293.96" y1="488.69" x2="337.36" y2="488.69" xlink:href="#linear-gradient"/>
    <linearGradient id="linear-gradient-30" x1="329.71" y1="477.58" x2="375.02" y2="477.58" xlink:href="#linear-gradient"/>
    <linearGradient id="linear-gradient-31" x1="359.96" y1="464.04" x2="404.34" y2="464.04" xlink:href="#linear-gradient"/>
    <linearGradient id="linear-gradient-32" x1="389.16" y1="444.65" x2="434.3" y2="444.65" xlink:href="#linear-gradient"/>
    <linearGradient id="linear-gradient-33" x1="414.92" y1="421.46" x2="460.51" y2="421.46" xlink:href="#linear-gradient"/>
    <linearGradient id="linear-gradient-34" x1="436.65" y1="394.98" x2="482.38" y2="394.98" xlink:href="#linear-gradient"/>
    <linearGradient id="linear-gradient-35" x1="453.82" y1="365.84" x2="499.38" y2="365.84" xlink:href="#linear-gradient"/>
    <linearGradient id="linear-gradient-36" x1="465.99" y1="334.65" x2="511.05" y2="334.65" xlink:href="#linear-gradient"/>
    <linearGradient id="linear-gradient-37" x1="472.83" y1="301.93" x2="517.44" y2="301.93" xlink:href="#linear-gradient"/>
    <linearGradient id="linear-gradient-38" x1="474.19" y1="268.43" x2="518.65" y2="268.43" xlink:href="#linear-gradient"/>
    <linearGradient id="linear-gradient-39" x1="486.46" y1="236.24" x2="502.36" y2="236.24" xlink:href="#linear-gradient"/>
    <linearGradient id="linear-gradient-40" x1="254.46" y1="496.4" x2="279.22" y2="496.4" xlink:href="#linear-gradient"/>
    <linearGradient id="New_Gradient_Swatch_copy" data-name="New Gradient Swatch copy" x1="40.29" y1="190.53" x2="57.73" y2="190.53" gradientUnits="userSpaceOnUse">
      <stop offset="0" stop-color="#4d4d4d"/>
      <stop offset="0" stop-color="#d8d8d8"/>
      <stop offset=".47" stop-color="#fff"/>
      <stop offset="1" stop-color="#d8d8d8"/>
    </linearGradient>
    <linearGradient id="New_Gradient_Swatch_copy-2" data-name="New Gradient Swatch copy" x1="475.95" x2="493.39" xlink:href="#New_Gradient_Swatch_copy"/>
    <linearGradient id="linear-gradient-41" x1="63.23" y1="99.83" x2="481.98" y2="99.83" gradientTransform="translate(-13.85 14.77) rotate(-3.09)" gradientUnits="userSpaceOnUse">
      <stop offset="0" stop-color="#4d4d4d"/>
      <stop offset="0" stop-color="#d8d8d8"/>
      <stop offset=".47" stop-color="#fff"/>
      <stop offset="1" stop-color="#d8d8d8"/>
    </linearGradient>
    <linearGradient id="linear-gradient-42" x1="188.98" y1="311.11" x2="256.32" y2="311.11" gradientTransform="translate(603.29) rotate(-180) scale(1 -1)" xlink:href="#linear-gradient"/>
    <linearGradient id="New_Gradient_Swatch_copy_2-3" data-name="New Gradient Swatch copy 2" x1="188.86" y1="311.43" x2="256.45" y2="311.43" gradientTransform="translate(603.29) rotate(-180) scale(1 -1)" xlink:href="#New_Gradient_Swatch_copy_2"/>
  </defs>
  <g id="Layer_1-2" data-name="Layer 1">
    <g>
      <ellipse cx="267" cy="265.48" rx="263.34" ry="263.84"/>
      <g>
        <g>
          <g class="cls-53">
            <g class="cls-11">
              <g class="cls-14">
                <path class="cls-2" d="M325.12,287.12c.14-.15.29-.3.43-.45.14-.14.27-.29.41-.44s.27-.29.4-.44c.13-.14.26-.28.39-.43.13-.14.26-.28.38-.42s.25-.28.37-.41c.12-.14.24-.27.36-.41.17-.19.33-.38.5-.58.03-.04.06-.08.1-.12.04-.05.09-.1.13-.15.09-.12.19-.23.28-.34.02-.02.04-.04.05-.07.41-.48.79-.95,1.14-1.38.09-.1.19-.22.28-.33.12-.16.26-.32.38-.48.19-.24.37-.47.54-.69.21-.28.42-.56.63-.84.83-1.11,1.63-2.25,2.39-3.41,15.92-23.99,18.2-55.86,3.19-82.66-21.36-38.14-69.75-51.8-107.88-30.45-23.12,12.94-37.24,35.81-40.03,60.32,0,.04,0,.08-.02.12-.29,2.63-.46,5.27-.5,7.92,0,.32,0,.64,0,.96,0,.51.02,1.06.03,1.61,0,.11,0,.21.01.32.02.41.03.83.05,1.26,0,.15.01.29.03.44,0,.17.01.33.02.49.01.26.03.52.05.77.02.37.05.74.08,1.1.02.28.04.56.07.83.06.59.12,1.2.19,1.81.04.4.09.8.14,1.2.07.52.14,1.04.21,1.58.06.36.11.72.17,1.09.04.27.09.54.13.81.11.66.24,1.31.37,1.97.04.19.08.39.11.59.09.45.18.9.28,1.35.04.19.09.38.13.57.08.34.15.68.24,1.01.07.34.16.68.25,1.02.1.41.22.84.33,1.25.1.36.2.71.3,1.07.05.18.09.35.15.53.14.47.28.96.43,1.43.1.34.21.68.33,1.03.09.24.16.48.25.72.04.1.07.2.11.3.07.2.14.4.21.6.03.06.05.13.07.2.07.22.16.44.24.66.17.47.35.93.54,1.39,1.29,3.25,2.8,6.45,4.55,9.58l.07.13c20.63,36.69,66.11,50.84,103.83,32.4l.03-.02c8.98-3.61,16.69-10.31,22.05-15.94ZM303.31,296.65l-.14.08h0s0,0,0,0c-.89.48-1.79.91-2.69,1.28l-.65.27s0,0-.01,0c-5.91,1.1-17.68,2.46-24.1.52-.43-5.13-1.34-16.92-1.57-19.88,4.75-3.66,21.58-16.8,24.79-21.72l23.94,1.56c1.44,7.16,2.44,15.1,1.73,16.86-.23.29-.54.69-.93,1.2-3.22,4.2-11.21,14.6-20.34,19.81ZM272.54,276.99c-7.28-1.98-24.88-7.22-29.01-10.58h0c-7.55-14.72-6.65-30.13-6.63-30.29v-.04c3.86-3.99,19.86-18.06,23.33-21.1l29.65,9.8c2.53,7.21,8.18,25.16,7.11,30.8,0,.01-.01.02,0,.03-.69,2.16-12.85,12.47-24.44,21.39ZM331.47,275.42h0s-4.24-.49-4.24-.49c.43-4.63-1.38-14.04-2.01-17.08,4.67-7.28,7.99-16.92,9.9-28.67l9.52-5.39c1.9,18.22-2.82,36.59-13.16,51.64ZM319.35,174.48c6.22,5.53,11.64,12.17,15.92,19.83,4.78,8.54,7.75,17.62,9.03,26.78l-9.95,5.64c-9.16-13.19-16.54-19.01-18.93-20.7.84-3.55-.13-9.02-2.87-16.28-1.59-4.19-3.33-7.84-4.22-9.6l11.02-5.66ZM305.72,180.5c2.79,5.38,9,19.4,7.17,25.35-2.98,2.55-19.14,14.29-22.26,16.54l-29.5-9.75-7.6-26.03,22.71-17.97c2.91.68,16.51,4.11,29.47,11.85ZM218.41,176.77l2.7-5.51c3.03-2.35,6.26-4.5,9.7-6.43,11.66-6.53,24.31-9.67,36.81-9.76l6.7,11.9-23.11,18.28c-3.33-.65-13.26-1.96-26.65,2.01l-6.16-10.48h0s0,0,0,0ZM197.29,232.29l-5.26-8.97h0s0-.01,0-.01c1.71-15.13,7.88-29.62,17.93-41.39l7.12-2.48,5.31,9.06c-3.2,4.77-10.68,17.2-11.4,30.54-6.23,3.06-10.87,9.23-13.69,13.24h0s0,0,0,0ZM204.97,266.36l-.13-.29c-.09-.2-.18-.4-.28-.61-.14-.32-.29-.65-.44-.99-.11-.25-.22-.51-.34-.78-.13-.3-.26-.61-.4-.93-.08-.2-.17-.4-.25-.61-.01-.02-.02-.05-.03-.07-.15-.36-.3-.73-.45-1.11-.39-1-.78-2.08-1.16-3.23-.09-.29-.19-.58-.28-.87-.09-.29-.18-.59-.27-.89-.1-.3-.18-.61-.27-.93-.09-.31-.18-.62-.26-.95-.16-.59-.31-1.21-.46-1.84-.09-.39-.17-.78-.25-1.19-.07-.35-.14-.7-.21-1.07-.07-.36-.13-.73-.2-1.1-.04-.24-.08-.47-.12-.72-.04-.24-.08-.49-.11-.73-.05-.27-.08-.55-.12-.84,0-.07-.02-.15-.03-.24,0-.04,0-.08-.02-.12-.06-.5-.12-1-.17-1.52-.02-.18-.04-.36-.05-.55-.02-.18-.03-.36-.05-.53,0-.07,0-.14-.01-.22-.02-.21-.04-.43-.05-.65-.05-.66-.09-1.34-.12-2.03-.01-.31-.02-.62-.04-.94,0-.06,0-.13,0-.2,0,0,0,0,0-.02,0-.16,0-.31,0-.47,0-.16,0-.32,0-.49-.01-.71,0-1.44,0-2.18,0-.01,0-.04,0-.05.01-.36.02-.72.03-1.09,0-.09,0-.19,0-.28h0s.17-.26.17-.26c2.58-3.7,7.23-10.39,13.43-13.45l8.27,5.41.05.03c5.53,3.98,12.03,8.54,13.99,9.92-.1,3.25-.09,16.78,6.63,30.28-4.22,4.09-13.58,12.57-15.69,14.48-2.26-.38-11.77-2.62-20.32-15.07ZM201.47,269.58l2.01-.98c9.08,12.72,19.04,14.94,21.55,15.31,2.16,2.79,14.01,17.77,22.14,20.77l-.49.84c-18.53-5.44-34.99-17.84-45.21-35.94ZM249.18,306.21l.64-1.09c.27-.01.55-.01.84-.02,5.25-.17,13.14-.44,23.84-4.02,8.16,2.72,23.29.13,25.86-.34l.37.66c-16.7,7.81-34.88,9.11-51.56,4.82Z"/>
              </g>
            </g>
          </g>
          <g class="cls-12">
            <g class="cls-13">
              <g class="cls-15">
                <path class="cls-16" d="M325.12,287.12c.14-.15.29-.3.43-.45.14-.14.27-.29.41-.44s.27-.29.4-.44c.13-.14.26-.28.39-.43.13-.14.26-.28.38-.42s.25-.28.37-.41c.12-.14.24-.27.36-.41.17-.19.33-.38.5-.58.03-.04.06-.08.1-.12.04-.05.09-.1.13-.15.09-.12.19-.23.28-.34.02-.02.04-.04.05-.07.41-.48.79-.95,1.14-1.38.09-.1.19-.22.28-.33.12-.16.26-.32.38-.48.19-.24.37-.47.54-.69.21-.28.42-.56.63-.84.83-1.11,1.63-2.25,2.39-3.41,15.92-23.99,18.2-55.86,3.19-82.66-21.36-38.14-69.75-51.8-107.88-30.45-23.12,12.94-37.24,35.81-40.03,60.32,0,.04,0,.08-.02.12-.29,2.63-.46,5.27-.5,7.92,0,.32,0,.64,0,.96,0,.51.02,1.06.03,1.61,0,.11,0,.21.01.32.02.41.03.83.05,1.26,0,.15.01.29.03.44,0,.17.01.33.02.49.01.26.03.52.05.77.02.37.05.74.08,1.1.02.28.04.56.07.83.06.59.12,1.2.19,1.81.04.4.09.8.14,1.2.07.52.14,1.04.21,1.58.06.36.11.72.17,1.09.04.27.09.54.13.81.11.66.24,1.31.37,1.97.04.19.08.39.11.59.09.45.18.9.28,1.35.04.19.09.38.13.57.08.34.15.68.24,1.01.07.34.16.68.25,1.02.1.41.22.84.33,1.25.1.36.2.71.3,1.07.05.18.09.35.15.53.14.47.28.96.43,1.43.1.34.21.68.33,1.03.09.24.16.48.25.72.04.1.07.2.11.3.07.2.14.4.21.6.03.06.05.13.07.2.07.22.16.44.24.66.17.47.35.93.54,1.39,1.29,3.25,2.8,6.45,4.55,9.58l.07.13c20.63,36.69,66.11,50.84,103.83,32.4l.03-.02c8.98-3.61,16.69-10.31,22.05-15.94ZM303.31,296.65l-.14.08h0s0,0,0,0c-.89.48-1.79.91-2.69,1.28l-.65.27s0,0-.01,0c-5.91,1.1-17.68,2.46-24.1.52-.43-5.13-1.34-16.92-1.57-19.88,4.75-3.66,21.58-16.8,24.79-21.72l23.94,1.56c1.44,7.16,2.44,15.1,1.73,16.86-.23.29-.54.69-.93,1.2-3.22,4.2-11.21,14.6-20.34,19.81ZM272.54,276.99c-7.28-1.98-24.88-7.22-29.01-10.58h0c-7.55-14.72-6.65-30.13-6.63-30.29v-.04c3.86-3.99,19.86-18.06,23.33-21.1l29.65,9.8c2.53,7.21,8.18,25.16,7.11,30.8,0,.01-.01.02,0,.03-.69,2.16-12.85,12.47-24.44,21.39ZM331.47,275.42h0s-4.24-.49-4.24-.49c.43-4.63-1.38-14.04-2.01-17.08,4.67-7.28,7.99-16.92,9.9-28.67l9.52-5.39c1.9,18.22-2.82,36.59-13.16,51.64ZM319.35,174.48c6.22,5.53,11.64,12.17,15.92,19.83,4.78,8.54,7.75,17.62,9.03,26.78l-9.95,5.64c-9.16-13.19-16.54-19.01-18.93-20.7.84-3.55-.13-9.02-2.87-16.28-1.59-4.19-3.33-7.84-4.22-9.6l11.02-5.66ZM305.72,180.5c2.79,5.38,9,19.4,7.17,25.35-2.98,2.55-19.14,14.29-22.26,16.54l-29.5-9.75-7.6-26.03,22.71-17.97c2.91.68,16.51,4.11,29.47,11.85ZM218.41,176.77l2.7-5.51c3.03-2.35,6.26-4.5,9.7-6.43,11.66-6.53,24.31-9.67,36.81-9.76l6.7,11.9-23.11,18.28c-3.33-.65-13.26-1.96-26.65,2.01l-6.16-10.48h0s0,0,0,0ZM197.29,232.29l-5.26-8.97h0s0-.01,0-.01c1.71-15.13,7.88-29.62,17.93-41.39l7.12-2.48,5.31,9.06c-3.2,4.77-10.68,17.2-11.4,30.54-6.23,3.06-10.87,9.23-13.69,13.24h0s0,0,0,0ZM204.97,266.36l-.13-.29c-.09-.2-.18-.4-.28-.61-.14-.32-.29-.65-.44-.99-.11-.25-.22-.51-.34-.78-.13-.3-.26-.61-.4-.93-.08-.2-.17-.4-.25-.61-.01-.02-.02-.05-.03-.07-.15-.36-.3-.73-.45-1.11-.39-1-.78-2.08-1.16-3.23-.09-.29-.19-.58-.28-.87-.09-.29-.18-.59-.27-.89-.1-.3-.18-.61-.27-.93-.09-.31-.18-.62-.26-.95-.16-.59-.31-1.21-.46-1.84-.09-.39-.17-.78-.25-1.19-.07-.35-.14-.7-.21-1.07-.07-.36-.13-.73-.2-1.1-.04-.24-.08-.47-.12-.72-.04-.24-.08-.49-.11-.73-.05-.27-.08-.55-.12-.84,0-.07-.02-.15-.03-.24,0-.04,0-.08-.02-.12-.06-.5-.12-1-.17-1.52-.02-.18-.04-.36-.05-.55-.02-.18-.03-.36-.05-.53,0-.07,0-.14-.01-.22-.02-.21-.04-.43-.05-.65-.05-.66-.09-1.34-.12-2.03-.01-.31-.02-.62-.04-.94,0-.06,0-.13,0-.2,0,0,0,0,0-.02,0-.16,0-.31,0-.47,0-.16,0-.32,0-.49-.01-.71,0-1.44,0-2.18,0-.01,0-.04,0-.05.01-.36.02-.72.03-1.09,0-.09,0-.19,0-.28h0s.17-.26.17-.26c2.58-3.7,7.23-10.39,13.43-13.45l8.27,5.41.05.03c5.53,3.98,12.03,8.54,13.99,9.92-.1,3.25-.09,16.78,6.63,30.28-4.22,4.09-13.58,12.57-15.69,14.48-2.26-.38-11.77-2.62-20.32-15.07ZM201.47,269.58l2.01-.98c9.08,12.72,19.04,14.94,21.55,15.31,2.16,2.79,14.01,17.77,22.14,20.77l-.49.84c-18.53-5.44-34.99-17.84-45.21-35.94ZM249.18,306.21l.64-1.09c.27-.01.55-.01.84-.02,5.25-.17,13.14-.44,23.84-4.02,8.16,2.72,23.29.13,25.86-.34l.37.66c-16.7,7.81-34.88,9.11-51.56,4.82Z"/>
              </g>
            </g>
          </g>
        </g>
        <path class="cls-10" d="M191.75,365.54c4.35,1.2,8.77-1.29,11.53-4.43,3.02-3.44,4.77-6.6,5.61-9.81.81-3.13.57-5.77-.33-8.03,4.12,3.51,6.74,8.12,4.93,14.06-.99,3.23-3.26,6.65-6.74,10.15-2.96,2.96-7.11,4.95-11.44,4.35-3.79-.53-9.55-3.83-9.55-8.11,0-1.49.9-2.83,2.02-4.12-.58,2.86.79,5.06,3.98,5.95"/>
        <path class="cls-17" d="M126.43,276.29c.37-2.47.96-4.93,1.79-7.38.01-.04.03-.07.05-.11,1.57-2.76.57-.61.62-.75-.17,1.03-.82,2.43-.92,3.45-.33,3.28-.28,6.59.09,9.86,1.76,15.24,10.54,29.06,21.61,39.66,5.44,5.21,11.63,9.99,18.39,13.51,7.38,3.84,15.7,6.03,22.46,10.95,1.23.9,2.21,2.16,2.53,3.62.24,1.05.78,3.03-1.31,5.74.33-.86.38-.95.48-2.01-.02-.78-.28-1.58-.92-2.45-1.61-2.18-4.66-3.41-7.23-4.23-8.82-2.81-16.76-5.52-24.49-10.25-20.02-12.25-36.67-36.03-33.15-59.61"/>
        <path class="cls-9" d="M349.59,365.54c-4.35,1.2-8.77-1.29-11.53-4.43-3.02-3.44-4.77-6.6-5.61-9.81-.82-3.13-.58-5.77.33-8.03-4.12,3.51-6.74,8.12-4.93,14.06.99,3.23,3.25,6.65,6.74,10.15,2.96,2.96,7.11,4.95,11.44,4.35,3.79-.53,9.56-3.83,9.54-8.11,0-1.49-.89-2.83-2.01-4.12.58,2.86-.79,5.06-3.98,5.95"/>
        <path class="cls-8" d="M190.42,345.54c-6.77-4.9-15.08-7.07-22.47-10.89-6.77-3.5-12.95-8.25-18.39-13.43-11.08-10.54-19.86-24.28-21.62-39.44-.38-3.25-.42-6.55-.09-9.81.1-1.01.25-2.03.43-3.06,3.34-9.38,10.67-18.08,20.68-20.38,9.65-2.22,19.58,1.8,28.16,6.51.02.34,3.11,1.59,3.13,1.93.18,4.03.63,10.63.8,14.67-.35-.23-4.77-1.21-5.14-1.39-7.11-3.53-22.35-8.04-27.18.78-.28.52-.52,1.03-.73,1.54-.64.79-1.22,1.68-1.68,2.69-3.23,7.06-3.29,14.38-.18,21.76,7.9,18.77,33.57,32.95,47.48,38.37l1.32.5c4.14,1.6,9.53,3.98,13.52,7.38.9,2.26,2.67,5.12,1.85,8.25-.84,3.2-3.41,6.51-6.44,9.96-2.76,3.14-8.97,5.92-13.32,4.71-3.19-.88-3.46-3.74-2.88-6.6,1.93-2.22,4.51-4.3,4.45-6.76.71-1,1.14-2.14.84-3.7-.28-1.46-1.3-2.7-2.53-3.6"/>
        <path class="cls-5" d="M350.82,345.54c6.77-4.9,15.08-7.07,22.46-10.89,6.77-3.5,12.94-8.25,18.39-13.43,11.07-10.54,19.86-24.28,21.61-39.44.38-3.25.42-6.55.09-9.81-.1-1.01-.25-2.03-.43-3.06-3.34-9.38-10.66-18.08-20.68-20.38-9.64-2.22-19.57,1.8-28.15,6.51-.02.34-2.92,1.46-2.95,1.8-.18,4.03-.81,10.77-.99,14.8.35-.23,4.77-1.21,5.14-1.39,7.11-3.53,22.35-8.04,27.17.78.28.52.52,1.03.73,1.54.64.79,1.22,1.68,1.68,2.69,3.23,7.06,3.29,14.38.18,21.76-7.9,18.77-33.56,32.95-47.47,38.37l-1.32.5c-4.14,1.6-9.53,3.98-13.52,7.38-.9,2.26-1.15,4.9-.33,8.03.84,3.2,1.89,6.73,4.91,10.18,2.76,3.14,8.97,5.92,13.32,4.71,3.19-.88,3.46-3.74,2.88-6.6-1.93-2.22-4.51-4.3-4.44-6.76-.71-1-1.14-2.14-.84-3.7.28-1.46,1.3-2.7,2.53-3.6"/>
        <path class="cls-6" d="M234.44,476.25h64.6c2.12,0,3.9-1.44,4.45-3.37-.91-3.99-5.37-5.5-14.59-14.41-12.82-12.38-9.6-48.62-8.18-60.25.15-1.17.26-2.08.35-2.7.1-.62.15-3.71.15-3.71h-25.2c1.47,10.32,6.36,52.4-9.29,66.33-10.05,8.97-15.25,10.95-16.75,14.67.53,1.96,2.33,3.44,4.47,3.44"/>
        <path class="cls-4" d="M294.75,458.14c-14.81-13.31-11.09-52.24-9.45-64.72.18-1.26.31-2.23.4-2.9.11-.67.17-1.01.17-1.01h-30.42s.14.83.34,2.31h25s-.05,3.1-.15,3.71c-.09.62-.2,1.54-.35,2.7-1.41,11.63-4.6,47.87,8.11,60.25,9.14,8.91,13.57,10.42,14.47,14.41-.54,1.93-2.31,3.37-4.41,3.37h-64.07c-2.12,0-3.91-1.47-4.43-3.44-.36.92-.52,1.95-.45,3.2.02.31.03.62.08.98.11.97.07,9.08.38,10.37l80.16-1.66c2.64-10.97-.61-14.31-15.37-27.57"/>
        <path class="cls-3" d="M287.92,374.48h-34.51c-1.04,0-2.05.15-3.01.41h36.18c4.22,0,7.66,3.44,7.66,7.65v2.65c0,4.21-3.44,7.66-7.66,7.66h-37.87c-3.01,0-5.62-1.78-6.86-4.33,1.06,5.4,5.85,9.52,11.56,9.52h34.51c6.48,0,11.79-5.3,11.79-11.78s-5.31-11.78-11.79-11.78"/>
        <path class="cls-7" d="M249.19,394.65h39.06c4.35,0,7.9-3.8,7.9-8.42v-2.92c0-4.63-3.55-8.42-7.9-8.42h-37.32c-5.2,1.47-9.06,6.53-9.06,12.51,0,.85.09,1.68.23,2.49,1.28,2.8,3.97,4.76,7.08,4.76"/>
        <path class="cls-20" d="M359.96,223.78h-178.57c-5.58,0-10.15,4.2-10.15,9.33v2.06c0,.81.13,1.59.34,2.34,1.13,4.01,5.1,6.99,9.81,6.99h178.57c5.58,0,10.14-4.2,10.14-9.34v-2.06c0-5.13-4.56-9.33-10.14-9.33"/>
        <path class="cls-21" d="M362.09,255.57c0,73.16-38.97,128.79-91.42,128.79-15.29,0-29.44-4.79-41.82-13.31,9.18,3.8,19.8,5.88,32.03,5.88,47.18,0,82.25-50.06,82.25-115.88,0-5.73-4.69-10.42-10.42-10.42l-117.83-.27-21-.06-14.56-.03c.07-2.23.16-4.47.29-6.68l13.9.04,21.27.03,146.96.35c.24,3.79.35,7.65.35,11.56"/>
        <path class="cls-22" d="M345.81,260.01c0-5.82-4.76-10.59-10.57-10.61l-155.84-.34c-.04,1.78-.08,3.57-.08,5.37,0,52.68,19.87,96.39,50.39,117.43,9.34,3.86,20.12,5.97,32.53,5.97,47.94,0,83.57-50.9,83.57-117.82"/>
      </g>
      <rect x="196.24" y="458.9" width="130.26" height="52.22"/>
      <path class="cls-23" d="M266.84,0c147.37,0,266.84,119.47,266.84,266.84s-119.47,266.84-266.84,266.84S0,414.21,0,266.84,119.47,0,266.84,0h0ZM528.01,266.84C528.01,122.6,411.08,5.67,266.84,5.67S5.67,122.6,5.67,266.84s116.93,261.17,261.17,261.17,261.17-116.93,261.17-261.17h0Z"/>
      <path class="cls-24" d="M266.84,68.76c54.7,0,104.22,22.17,140.06,58.02,35.85,35.85,58.02,85.37,58.02,140.06s-22.17,104.22-58.02,140.06c-35.85,35.85-85.37,58.02-140.06,58.02s-104.22-22.17-140.06-58.02c-35.85-35.85-58.02-85.37-58.02-140.06s22.17-104.22,58.02-140.06c35.85-35.85,85.37-58.02,140.06-58.02h0ZM398.89,134.79c-33.79-33.79-80.48-54.7-132.05-54.7s-98.25,20.9-132.05,54.7c-33.79,33.79-54.7,80.48-54.7,132.05s20.9,98.25,54.7,132.05c33.79,33.79,80.48,54.7,132.05,54.7s98.25-20.9,132.05-54.7c33.79-33.79,54.7-80.48,54.7-132.05s-20.9-98.25-54.7-132.05h0Z"/>
      <polygon class="cls-44" points="266.84 93.41 271.71 108.48 287.55 108.45 274.72 117.74 279.64 132.8 266.84 123.46 254.04 132.8 258.97 117.74 246.13 108.45 261.97 108.48 266.84 93.41 266.84 93.41"/>
      <polygon class="cls-43" points="199.23 119.56 202.31 129.11 212.35 129.09 204.22 134.97 207.34 144.51 199.23 138.59 191.12 144.51 194.24 134.97 186.11 129.09 196.15 129.11 199.23 119.56 199.23 119.56"/>
      <polygon class="cls-36" points="334.45 119.56 337.53 129.11 347.57 129.09 339.44 134.97 342.56 144.51 334.45 138.59 326.35 144.51 329.46 134.97 321.34 129.09 331.37 129.11 334.45 119.56 334.45 119.56"/>
      <path class="cls-34" d="M198.94,508.08c6.1,3.72,13.57,5.25,21.13,3.73,7.56-1.51,13.87-5.79,18.07-11.58-6.1-3.72-13.57-5.25-21.14-3.73-7.56,1.51-13.87,5.79-18.07,11.58h0ZM208.8,467.61c7.13-.5,14.46,1.58,20.49,6.4,6.02,4.82,9.65,11.52,10.72,18.59-7.13.5-14.46-1.58-20.49-6.4-6.02-4.82-9.65-11.52-10.72-18.59h0Z"/>
      <path class="cls-27" d="M163.3,495.36c5.5,4.57,12.67,7.16,20.37,6.76,7.7-.4,14.56-3.72,19.56-8.83-5.5-4.57-12.67-7.16-20.37-6.76-7.7.4-14.56,3.72-19.56,8.83h0ZM178.92,456.75c7.13.54,14.08,3.66,19.34,9.3,5.26,5.64,7.88,12.8,7.92,19.95-7.13-.54-14.08-3.66-19.34-9.3-5.26-5.64-7.88-12.8-7.92-19.95h0Z"/>
      <path class="cls-31" d="M129.62,476.11c4.53,5.53,11.07,9.44,18.71,10.51,7.64,1.07,15-.88,20.88-4.95-4.53-5.53-11.07-9.44-18.71-10.51-7.64-1.07-15,.88-20.88,4.95h0ZM152.3,441.17c6.9,1.89,13.13,6.27,17.22,12.81,4.09,6.54,5.3,14.06,3.98,21.09-6.9-1.89-13.13-6.27-17.21-12.81-4.09-6.54-5.3-14.06-3.98-21.09h0Z"/>
      <path class="cls-26" d="M99.66,453.28c3.71,6.11,9.65,10.89,17.06,13.02,7.41,2.13,14.98,1.22,21.37-1.99-3.71-6.11-9.65-10.89-17.06-13.02-7.41-2.13-14.98-1.22-21.37,1.99h0ZM127,421.85c6.56,2.83,12.12,8.04,15.26,15.09,3.13,7.05,3.28,14.67.99,21.44-6.56-2.83-12.12-8.04-15.26-15.09-3.13-7.05-3.28-14.66-.99-21.44h0Z"/>
      <path class="cls-32" d="M73.45,426.21c2.83,6.56,8.04,12.12,15.09,15.26,7.05,3.14,14.66,3.29,21.44,1-2.83-6.56-8.04-12.12-15.09-15.26-7.05-3.14-14.66-3.29-21.44-1h0ZM104.88,398.88c6.11,3.71,10.89,9.65,13.02,17.06,2.13,7.41,1.22,14.98-1.99,21.37-6.11-3.72-10.89-9.65-13.02-17.06-2.13-7.41-1.22-14.98,1.99-21.37h0Z"/>
      <path class="cls-33" d="M51.58,395.49c1.89,6.89,6.28,13.12,12.82,17.21,6.54,4.08,14.07,5.29,21.09,3.96-1.89-6.89-6.28-13.12-12.82-17.21-6.54-4.08-14.07-5.29-21.09-3.96h0ZM86.5,372.79c5.53,4.53,9.44,11.07,10.52,18.7,1.08,7.64-.87,15-4.94,20.88-5.53-4.53-9.44-11.07-10.52-18.7-1.08-7.64.87-15,4.94-20.88h0Z"/>
      <path class="cls-48" d="M34.59,361.76c.91,7.09,4.38,13.87,10.28,18.83,5.91,4.96,13.19,7.21,20.33,6.88-.91-7.09-4.38-13.87-10.28-18.83-5.9-4.96-13.19-7.21-20.33-6.88h0ZM72.34,344.18c4.84,5.26,7.8,12.28,7.8,19.99,0,7.71-2.97,14.73-7.82,19.98-4.84-5.26-7.8-12.28-7.79-19.99,0-7.71,2.97-14.73,7.82-19.98h0Z"/>
      <path class="cls-30" d="M22.92,325.76c-.11,7.15,2.36,14.36,7.5,20.11,5.14,5.75,12.02,9.02,19.14,9.71.11-7.15-2.36-14.36-7.5-20.11-5.14-5.75-12.02-9.02-19.14-9.71h0ZM62.8,313.73c4.04,5.89,5.97,13.27,4.87,20.9-1.1,7.63-5.04,14.16-10.59,18.67-4.04-5.89-5.97-13.27-4.87-20.9,1.1-7.63,5.04-14.16,10.59-18.67h0Z"/>
      <path class="cls-46" d="M16.91,288.3c-1.15,7.06.25,14.55,4.5,20.98,4.25,6.44,10.59,10.66,17.53,12.38,1.15-7.06-.25-14.55-4.5-20.98-4.25-6.44-10.59-10.66-17.53-12.38h0ZM58.12,282.19c3.15,6.42,3.98,13.99,1.79,21.39-2.2,7.39-7.04,13.28-13.18,16.94-3.15-6.42-3.98-13.99-1.79-21.39,2.2-7.39,7.04-13.28,13.18-16.94h0Z"/>
      <path class="cls-47" d="M16.72,250.31c-2.17,6.81-1.89,14.43,1.37,21.42,3.26,6.99,8.91,12.1,15.53,14.82,2.17-6.81,1.89-14.43-1.37-21.42-3.26-6.99-8.91-12.1-15.53-14.82h0ZM58.37,250.31c2.17,6.81,1.89,14.43-1.37,21.42-3.26,6.99-8.91,12.1-15.53,14.82-2.17-6.81-1.89-14.43,1.37-21.42,3.26-6.99,8.91-12.1,15.52-14.82h0Z"/>
      <path class="cls-29" d="M41.8,216.37c-5.41,4.68-9.14,11.32-10.01,18.99-.87,7.66,1.29,14.98,5.51,20.74,5.41-4.68,9.14-11.32,10-18.99.87-7.66-1.29-14.97-5.51-20.74h0Z"/>
      <path class="cls-45" d="M337.36,507.84c-6.45,3.93-14.34,5.55-22.34,3.95-7.99-1.6-14.66-6.12-19.1-12.23,6.45-3.93,14.34-5.55,22.34-3.95,7.99,1.6,14.66,6.12,19.1,12.23h0ZM326.94,465.06c-7.54-.53-15.29,1.67-21.65,6.77-6.36,5.1-10.2,12.18-11.33,19.65,7.54.53,15.29-1.67,21.65-6.77,6.36-5.1,10.2-12.18,11.33-19.65h0Z"/>
      <path class="cls-40" d="M375.02,494.39c-5.81,4.83-13.39,7.57-21.53,7.14-8.14-.42-15.39-3.93-20.67-9.34,5.81-4.83,13.39-7.57,21.53-7.14,8.14.42,15.39,3.93,20.67,9.34h0ZM358.52,453.59c-7.53.57-14.88,3.87-20.44,9.83-5.56,5.96-8.33,13.53-8.36,21.08,7.53-.57,14.88-3.87,20.44-9.83,5.56-5.96,8.33-13.53,8.37-21.08h0Z"/>
      <path class="cls-42" d="M404.34,476.11c-4.53,5.53-11.07,9.44-18.71,10.51-7.64,1.07-15-.88-20.88-4.95,4.53-5.53,11.07-9.44,18.71-10.51,7.64-1.07,15,.88,20.88,4.95h0ZM381.66,441.17c-6.89,1.89-13.13,6.27-17.21,12.81-4.09,6.54-5.3,14.06-3.98,21.09,6.9-1.89,13.13-6.27,17.22-12.81,4.09-6.54,5.3-14.06,3.98-21.09h0Z"/>
      <path class="cls-28" d="M434.3,453.28c-3.71,6.11-9.65,10.89-17.06,13.02-7.41,2.13-14.98,1.22-21.37-1.99,3.71-6.11,9.64-10.89,17.06-13.02,7.41-2.13,14.98-1.22,21.37,1.99h0ZM406.97,421.85c-6.56,2.83-12.12,8.04-15.26,15.09-3.13,7.05-3.28,14.67-.99,21.44,6.56-2.83,12.12-8.04,15.25-15.09,3.13-7.05,3.28-14.67.99-21.44h0Z"/>
      <path class="cls-41" d="M460.51,426.21c-2.83,6.56-8.04,12.12-15.09,15.26-7.05,3.14-14.66,3.29-21.44,1,2.83-6.56,8.04-12.12,15.09-15.26,7.05-3.14,14.66-3.29,21.44-1h0ZM429.08,398.88c-6.11,3.72-10.89,9.65-13.02,17.06-2.13,7.41-1.22,14.98,1.99,21.37,6.11-3.72,10.89-9.65,13.02-17.06s1.22-14.98-1.99-21.37h0Z"/>
      <path class="cls-39" d="M482.38,395.49c-1.89,6.89-6.28,13.12-12.82,17.21-6.54,4.08-14.07,5.29-21.09,3.96,1.89-6.89,6.28-13.12,12.82-17.21,6.54-4.08,14.07-5.29,21.09-3.96h0ZM447.46,372.79c-5.53,4.53-9.44,11.07-10.52,18.7-1.08,7.64.87,15,4.94,20.88,5.53-4.53,9.44-11.07,10.52-18.7,1.08-7.64-.87-15-4.94-20.88h0Z"/>
      <path class="cls-35" d="M499.38,361.76c-.91,7.09-4.38,13.87-10.28,18.83-5.91,4.96-13.19,7.21-20.33,6.88.91-7.09,4.38-13.87,10.28-18.83,5.9-4.96,13.18-7.21,20.33-6.88h0ZM461.62,344.18c-4.84,5.26-7.8,12.28-7.79,19.99,0,7.71,2.97,14.73,7.82,19.98,4.84-5.26,7.8-12.28,7.79-19.99,0-7.71-2.97-14.73-7.82-19.98h0Z"/>
      <path class="cls-37" d="M511.05,325.76c.11,7.15-2.36,14.36-7.5,20.11-5.14,5.75-12.02,9.02-19.14,9.71-.11-7.15,2.36-14.36,7.5-20.11,5.14-5.75,12.02-9.02,19.14-9.71h0ZM471.17,313.73c-4.04,5.89-5.97,13.27-4.87,20.9,1.1,7.63,5.04,14.16,10.59,18.67,4.04-5.89,5.97-13.27,4.87-20.9-1.1-7.63-5.04-14.16-10.59-18.67h0Z"/>
      <path class="cls-50" d="M517.05,288.3c1.15,7.06-.25,14.55-4.5,20.98-4.25,6.44-10.59,10.66-17.53,12.38-1.15-7.06.25-14.55,4.5-20.98,4.25-6.44,10.59-10.66,17.53-12.38h0ZM475.85,282.19c-3.15,6.42-3.98,13.99-1.79,21.39,2.2,7.39,7.04,13.28,13.18,16.94,3.15-6.42,3.98-13.99,1.79-21.39-2.2-7.39-7.04-13.28-13.18-16.94h0Z"/>
      <path class="cls-38" d="M517.25,250.31c2.17,6.81,1.89,14.43-1.37,21.42-3.26,6.99-8.91,12.1-15.53,14.82-2.17-6.81-1.89-14.43,1.37-21.42,3.26-6.99,8.91-12.1,15.52-14.82h0ZM475.59,250.31c-2.17,6.81-1.89,14.43,1.37,21.42,3.26,6.99,8.91,12.1,15.52,14.82,2.17-6.81,1.89-14.43-1.37-21.42-3.26-6.99-8.91-12.1-15.53-14.82h0Z"/>
      <path class="cls-49" d="M492.16,216.37c5.41,4.68,9.14,11.32,10,18.99.87,7.66-1.29,14.98-5.51,20.74-5.41-4.68-9.14-11.32-10.01-18.99-.87-7.66,1.29-14.97,5.51-20.74h0Z"/>
      <path class="cls-51" d="M266.84,484.01c6.84,0,12.38,5.54,12.38,12.38s-5.54,12.38-12.38,12.38-12.38-5.54-12.38-12.38,5.54-12.38,12.38-12.38h0Z"/>
      <path class="cls-25" d="M49.01,181.81c4.82,0,8.72,3.9,8.72,8.72s-3.9,8.72-8.72,8.72-8.72-3.9-8.72-8.72,3.9-8.72,8.72-8.72h0Z"/>
      <path class="cls-52" d="M484.67,181.81c4.82,0,8.72,3.9,8.72,8.72s-3.9,8.72-8.72,8.72-8.72-3.9-8.72-8.72,3.9-8.72,8.72-8.72h0Z"/>
    </g>
    <g>
      <path class="cls-19" d="M93.92,151.75l-5.25,8.63c-1.79,2.95-3.81,4.71-6.06,5.3-2.25.59-4.82,0-7.69-1.75l-12.91-7.85c-2.88-1.75-4.58-3.76-5.11-6.04-.53-2.28.1-4.89,1.89-7.83l5.25-8.63c.27-.45.59-.7.94-.76.36-.06.8.07,1.32.39l5.02,3.05c.53.32.85.65.96,1s.03.74-.24,1.19l-4.32,7.11c-.44.73-.6,1.38-.47,1.94.13.56.54,1.06,1.23,1.48l9.88,6.01c.69.42,1.31.55,1.84.39.53-.16,1.02-.61,1.47-1.34l4.32-7.11c.27-.45.59-.7.94-.76.36-.06.8.07,1.32.39l4.94,3c.53.32.85.65.96.99.11.34.03.74-.24,1.19Z"/>
      <path class="cls-19" d="M80.06,109.22l-8.97,11.21c-.33.41-.67.62-1.03.63-.36.01-.78-.18-1.26-.56l-3.53-2.82c-.48-.38-.76-.75-.82-1.11-.07-.35.06-.74.39-1.15l8.97-11.21c.33-.41.67-.62,1.03-.63.36-.01.78.18,1.26.56l3.53,2.82c.48.38.75.75.82,1.11.07.36-.06.74-.39,1.15ZM110.42,130.38l-12,14.99c-.33.41-.67.62-1.03.63-.36.01-.78-.18-1.26-.56l-24.58-19.67c-.48-.38-.75-.75-.82-1.11-.07-.35.06-.74.39-1.15l12-14.99c.33-.41.67-.62,1.03-.63.36,0,.78.18,1.26.56l4.44,3.55c.48.38.76.76.82,1.11.07.36-.06.74-.39,1.15l-7.14,8.92,2.92,2.34,5.04-6.3c.33-.41.67-.62,1.03-.63.36,0,.78.18,1.26.56l4.06,3.25c.48.38.76.76.82,1.11.07.36-.06.74-.39,1.15l-5.04,6.3,3.26,2.61,7.14-8.92c.33-.41.67-.62,1.03-.63.36-.01.78.18,1.26.56l4.44,3.55c.48.38.76.75.82,1.11.07.36-.06.74-.39,1.15Z"/>
      <path class="cls-19" d="M129.94,110.97l-14.8,14.23c-.38.36-.75.53-1.11.49-.36-.04-.75-.28-1.18-.72l-4.51-4.69c-.43-.44-.74-.89-.95-1.34-.21-.45-.34-.97-.39-1.54l-2.69-17.3-6.38,6.14c-.38.36-.75.53-1.11.49-.36-.04-.75-.28-1.18-.72l-4.08-4.24c-.43-.44-.65-.85-.67-1.21-.02-.36.16-.72.53-1.09l13.72-13.2c.38-.36.75-.53,1.11-.49.36.04.75.28,1.18.72l5.02,5.22c.45.47.78.93.98,1.38.21.45.34.97.39,1.54l2.54,16.5,7.13-6.86c.38-.36.75-.53,1.11-.49.36.04.75.28,1.18.72l4.01,4.17c.43.44.65.85.67,1.21.02.36-.16.72-.53,1.09Z"/>
      <path class="cls-19" d="M140.51,100.41c.36.5.53.93.5,1.29-.03.36-.25.7-.68,1l-4.92,3.57c-.42.31-.81.42-1.16.33-.35-.08-.71-.38-1.07-.88l-7.54-10.38c-.57-.79-1.12-1.77-1.65-2.94-.53-1.18-1.07-2.61-1.61-4.3l-3.57-11.04c-.19-.54-.22-1.02-.09-1.43.13-.41.41-.78.86-1.1l9.01-6.54c.42-.31.85-.46,1.28-.45.43,0,.88.19,1.33.53l9.39,6.81c1.44,1.04,2.63,1.99,3.59,2.86.95.87,1.72,1.7,2.29,2.48l7.54,10.38c.36.5.53.93.5,1.29-.03.36-.25.7-.68,1l-5.06,3.67c-.45.32-.86.45-1.23.38-.37-.07-.74-.35-1.1-.85l-4-5.5-5.93,4.3,4,5.5ZM128.88,80.39l2.77,7.12,5.26-3.82-5.91-4.83c-.26-.17-.48-.27-.66-.3-.18-.03-.33,0-.47.1l-.84.61c-.13.1-.21.24-.24.41-.02.18,0,.42.09.72Z"/>
      <path class="cls-19" d="M166.35,85.74l-5.65,2.95c-.47.24-.87.3-1.2.16-.34-.14-.65-.48-.93-1.02l-14.55-27.92c-.28-.54-.39-.99-.31-1.35.08-.35.35-.65.82-.89l12.22-6.37c2.74-1.43,4.98-1.75,6.71-.95,1.74.79,3.16,2.25,4.27,4.38l1.03,1.98c.63,1.21,1.01,2.31,1.15,3.32.14,1.01-.08,1.89-.64,2.66,1.41-.52,2.81-.44,4.2.22,1.39.67,2.55,1.9,3.5,3.71l4.76,9.14c.28.55.39,1,.3,1.35-.08.35-.35.65-.82.89l-5.69,2.96c-.46.24-.86.3-1.2.16-.34-.14-.65-.48-.93-1.02l-3.44-6.59c-.33-.63-.68-1.04-1.04-1.24-.37-.19-.81-.16-1.32.11l-5.14,2.68,4.4,8.45c.28.55.39,1,.31,1.35-.08.35-.35.65-.82.89ZM155.54,61.78l2.87,5.52,2.75-1.43c.64-.33.96-.75.98-1.25.02-.5-.12-1.04-.42-1.62l-.76-1.46c-.3-.57-.66-1-1.08-1.27-.42-.27-.95-.24-1.59.09l-2.75,1.43Z"/>
      <path class="cls-19" d="M194.26,71.15c.2.58.24,1.04.1,1.38-.13.34-.45.59-.94.76l-5.75,1.99c-.5.17-.9.17-1.21-.02-.31-.18-.57-.57-.77-1.15l-4.19-12.12c-.32-.92-.56-2.02-.72-3.3-.16-1.28-.26-2.81-.29-4.58l-.2-11.6c-.02-.57.09-1.04.33-1.4s.62-.63,1.14-.81l10.52-3.64c.5-.17.95-.19,1.36-.06.41.13.78.43,1.12.9l7,9.25c1.07,1.41,1.94,2.67,2.6,3.78.66,1.11,1.15,2.12,1.47,3.04l4.19,12.12c.2.58.23,1.04.1,1.38-.13.34-.45.59-.94.76l-5.91,2.04c-.52.18-.95.18-1.29,0-.34-.17-.61-.55-.81-1.13l-2.22-6.43-6.92,2.39,2.22,6.43ZM188.97,48.61l.57,7.62,6.14-2.12-4.25-6.34c-.2-.24-.38-.4-.54-.48-.16-.08-.32-.1-.47-.04l-.98.34c-.16.05-.27.16-.35.33-.07.16-.12.4-.13.71Z"/>
      <path class="cls-19" d="M233.03,62.8l-6.35.88c-.52.07-.92-.01-1.18-.25-.27-.24-.45-.67-.53-1.28l-4.33-31.19c-.08-.61-.03-1.07.16-1.37.19-.31.55-.49,1.07-.57l6.35-.88c.52-.07.91.01,1.18.25.27.24.45.67.53,1.28l1.54,11.07,1.64-.23,2.66-11.8c.11-.6.31-1.05.61-1.34.29-.29.7-.46,1.22-.54l6.31-.88c.46-.07.8.03,1,.28.2.25.24.65.12,1.19l-2.62,11.79c1.54-.12,2.85.35,3.93,1.39,1.08,1.04,1.75,2.53,2.02,4.45l1.89,13.57c.08.61.03,1.07-.16,1.37-.19.31-.55.49-1.07.57l-6.31.88c-.52.07-.91-.01-1.18-.25-.27-.24-.45-.67-.53-1.28l-1.3-9.38c-.07-.51-.24-.9-.5-1.16-.26-.26-.61-.36-1.04-.3l-5.41.75,1.53,11.02c.08.61.03,1.07-.16,1.37-.19.31-.55.49-1.07.57Z"/>
      <path class="cls-19" d="M264.25,58.4c0,.62-.13,1.06-.36,1.33-.24.27-.62.41-1.14.4l-6.08-.05c-.52,0-.9-.14-1.13-.42-.23-.28-.35-.72-.34-1.34l.1-12.83c0-.97.15-2.09.42-3.35.27-1.26.69-2.73,1.26-4.41l3.69-11c.17-.55.43-.95.78-1.21.35-.26.8-.38,1.35-.38l11.13.09c.52,0,.96.14,1.3.4.34.26.59.67.76,1.22l3.51,11.06c.54,1.69.93,3.17,1.19,4.43.25,1.27.37,2.38.37,3.36l-.1,12.83c0,.62-.13,1.06-.36,1.33-.24.27-.62.41-1.14.4l-6.25-.05c-.55,0-.96-.15-1.22-.42-.26-.28-.39-.72-.38-1.34l.05-6.8-7.33-.06-.05,6.8ZM266.8,35.38l-2,7.37,6.5.05-1.89-7.4c-.11-.29-.22-.5-.35-.63-.12-.13-.27-.2-.43-.2h-1.03c-.17-.01-.31.05-.44.18-.12.13-.24.34-.36.63Z"/>
      <path class="cls-19" d="M312.5,55.54c-.23,1.47-.62,2.78-1.18,3.92-.55,1.14-1.37,2.07-2.44,2.77s-2.46,1.17-4.17,1.39c-1.71.23-3.83.14-6.37-.25-2.53-.39-4.58-.96-6.14-1.69-1.56-.73-2.75-1.6-3.56-2.59-.81-.99-1.3-2.12-1.48-3.38-.18-1.26-.16-2.62.07-4.09l3.7-23.77c.1-.61.28-1.03.55-1.27.27-.24.67-.31,1.19-.23l6.42,1c.52.08.87.28,1.06.58.19.31.24.77.14,1.38l-3.41,21.89c-.1.64.02,1.21.36,1.7.34.5,1.22.85,2.64,1.07,1.44.22,2.41.15,2.88-.22s.76-.87.86-1.51l3.41-21.89c.09-.61.28-1.03.55-1.27.27-.24.67-.31,1.19-.23l6.22.97c.52.08.87.28,1.06.58.19.31.24.77.14,1.37l-3.7,23.77Z"/>
      <path class="cls-19" d="M329.74,70l-12.52-3.79c-.5-.15-.83-.39-.97-.72-.15-.33-.13-.79.05-1.38l1.65-5.44c.18-.59.42-.98.72-1.18.3-.2.71-.22,1.21-.07l10.66,3.22c.34.1.64.05.89-.16.25-.21.43-.5.55-.88.16-.53.19-.94.09-1.24-.1-.3-.31-.52-.65-.65l-5.65-2.77c-1.76-.87-3.02-2.03-3.81-3.49s-.78-3.49,0-6.09l1.48-4.88c.8-2.64,2.13-4.44,4.01-5.41,1.88-.97,4.1-1.07,6.66-.3l11.09,3.36c.5.15.82.39.97.72.14.33.13.79-.05,1.38l-1.67,5.53c-.18.59-.42.98-.72,1.18-.3.2-.71.22-1.21.07l-9.23-2.79c-.34-.1-.65-.05-.91.16-.27.21-.46.51-.58.92-.12.4-.13.77-.03,1.11.1.33.32.57.65.7l5.62,2.72c1.75.87,3.03,2.03,3.83,3.49s.8,3.49.02,6.1l-1.48,4.88c-.8,2.64-2.14,4.44-4.03,5.41-1.89.97-4.11,1.07-6.64.3Z"/>
      <path class="cls-19" d="M354.65,79.78l-11.92-5.37c-.48-.22-.77-.5-.87-.84-.1-.35-.02-.8.23-1.36l2.34-5.18c.25-.56.54-.92.87-1.08.33-.15.73-.12,1.21.09l10.15,4.57c.33.15.63.13.91-.04.28-.18.49-.44.65-.8.23-.5.31-.91.25-1.22-.06-.31-.24-.55-.56-.73l-5.24-3.48c-1.63-1.09-2.74-2.41-3.33-3.95-.59-1.54-.33-3.56.79-6.04l2.1-4.65c1.13-2.51,2.69-4.12,4.68-4.85,1.99-.72,4.2-.53,6.64.57l10.56,4.76c.48.21.77.5.87.84.1.35.02.8-.23,1.36l-2.38,5.27c-.25.56-.54.92-.87,1.07-.33.16-.73.12-1.21-.09l-8.79-3.96c-.33-.15-.64-.13-.92.04-.29.17-.52.45-.69.83-.17.38-.23.75-.18,1.09.06.34.24.61.55.78l5.22,3.42c1.63,1.09,2.74,2.41,3.35,3.96.6,1.55.35,3.57-.77,6.05l-2.1,4.65c-1.13,2.51-2.7,4.12-4.7,4.84-2,.71-4.21.53-6.62-.56Z"/>
      <path class="cls-19" d="M391.74,102l-16.23-11.16c-.43-.3-.67-.63-.7-.99-.04-.36.12-.79.47-1.3l4.74-6.89c1.06-1.55,2.07-2.73,3.02-3.55s1.88-1.39,2.8-1.7,1.83-.43,2.75-.35c.92.08,1.85.25,2.81.52l5.73,1.46c.44.14.79.15,1.06.02s.55-.4.85-.83c.28-.4.4-.72.36-.96-.04-.24-.22-.48-.56-.71l-7.4-5.09c-.43-.3-.67-.62-.7-.99-.04-.36.12-.79.47-1.3l3.22-4.68c.35-.51.7-.81,1.05-.9.35-.09.74,0,1.17.3l10.06,6.92c1.93,1.33,3.03,2.92,3.28,4.76.25,1.85-.36,3.85-1.85,6.01l-2.59,3.76c-1.38,2-2.91,3.21-4.6,3.62-1.69.41-3.55.35-5.59-.19l-5.82-1.47c-.42-.13-.73-.17-.95-.12-.22.05-.47.29-.77.71l-.58.84,9.72,6.68c.43.3.67.62.7.98s-.12.79-.47,1.3l-3.22,4.68c-.35.51-.7.81-1.05.9-.35.09-.74,0-1.17-.3Z"/>
      <path class="cls-19" d="M421.52,115.85c-1,1.1-2.05,1.98-3.13,2.64-1.08.66-2.26.99-3.53.99-1.27,0-2.68-.37-4.22-1.11-1.54-.75-3.25-1.97-5.13-3.68-1.88-1.71-3.26-3.29-4.15-4.76-.89-1.46-1.39-2.83-1.5-4.1-.12-1.27.1-2.47.64-3.62.54-1.15,1.31-2.27,2.32-3.38l11.15-12.25c1-1.1,2.05-1.98,3.14-2.62,1.09-.65,2.28-.98,3.56-.99,1.28-.02,2.69.35,4.24,1.09,1.54.75,3.25,1.97,5.13,3.68,1.88,1.71,3.26,3.29,4.15,4.76.89,1.46,1.38,2.84,1.49,4.11.1,1.28-.12,2.49-.67,3.63s-1.33,2.26-2.33,3.36l-11.15,12.25ZM410.91,103.83c-.44.48-.65,1.02-.65,1.61,0,.59.52,1.36,1.56,2.31,1.04.95,1.85,1.39,2.45,1.34.59-.06,1.1-.32,1.54-.8l8.8-9.67c.41-.46.62-.98.62-1.57,0-.59-.52-1.36-1.56-2.31-1.04-.95-1.86-1.39-2.45-1.34-.59.05-1.09.31-1.51.76l-8.8,9.67Z"/>
      <path class="cls-19" d="M431.79,141.94l-12.66-15.1c-.34-.4-.48-.78-.41-1.14.06-.36.33-.73.8-1.13l6.4-5.37c1.44-1.21,2.73-2.08,3.86-2.62,1.13-.54,2.18-.83,3.15-.89.97-.06,1.88.08,2.74.4s1.72.74,2.57,1.25l5.13,2.94c.38.25.72.36,1.02.31.29-.05.64-.24,1.04-.57.37-.31.57-.59.6-.83.03-.24-.09-.52-.35-.84l-5.77-6.88c-.34-.4-.47-.78-.41-1.14.06-.36.33-.73.8-1.13l4.36-3.65c.47-.39.89-.59,1.25-.59.36,0,.71.21,1.05.61l7.84,9.36c1.51,1.8,2.13,3.62,1.89,5.47s-1.38,3.61-3.39,5.3l-3.5,2.93c-1.86,1.56-3.66,2.31-5.4,2.26-1.74-.06-3.52-.62-5.34-1.68l-5.22-2.97c-.37-.23-.66-.36-.88-.37-.22-.01-.53.15-.93.48l-.78.66,7.58,9.04c.33.4.47.78.41,1.14-.06.36-.33.73-.8,1.13l-4.36,3.65c-.47.4-.89.59-1.25.59-.36,0-.71-.21-1.05-.61Z"/>
      <path class="cls-19" d="M441.53,157.64c-1.36-2.15-2.27-4.02-2.74-5.64-.47-1.61-.58-3.04-.34-4.26s.77-2.31,1.6-3.24c.83-.93,1.87-1.8,3.13-2.59l13.47-8.52c2.49-1.58,4.9-2.25,7.24-2.01,2.33.24,4.54,2,6.62,5.29l5.09,8.04c.28.44.37.84.26,1.18-.11.35-.42.68-.94,1.01l-4.85,3.07c-.52.33-.96.47-1.32.42-.36-.05-.68-.3-.96-.74l-4.14-6.54c-.55-.86-1.07-1.35-1.58-1.45-.51-.1-1.27.17-2.28.81l-.9.57c.55.44,1.11.99,1.68,1.66s1.16,1.46,1.75,2.4c1.99,3.15,2.73,5.7,2.23,7.65-.51,1.95-1.98,3.7-4.42,5.24l-3.94,2.49c-1.26.8-2.49,1.37-3.69,1.72-1.2.35-2.4.38-3.6.08-1.21-.3-2.42-.98-3.64-2.03s-2.47-2.58-3.74-4.59ZM451.26,147.85l-2.42,1.53c-.44.28-.71.65-.82,1.11-.11.46.15,1.19.79,2.2.66,1.05,1.23,1.62,1.69,1.72.46.1.92,0,1.35-.27l2.42-1.53c.41-.26.67-.62.78-1.08.11-.46-.17-1.22-.83-2.27-.63-1-1.18-1.55-1.65-1.65-.46-.1-.9-.02-1.31.24Z"/>
    </g>
    <path class="cls-18" d="M414.71,276.29c-.37-2.47-.96-4.93-1.78-7.38-.01-.04-.03-.07-.05-.11-1.56-2.76-.57-.61-.62-.75.17,1.03.82,2.43.92,3.45.32,3.28.28,6.59-.09,9.86-1.75,15.24-10.49,29.06-21.51,39.66-5.42,5.21-11.57,9.99-18.3,13.51-7.34,3.84-15.63,6.03-22.36,10.95-1.23.9-2.2,2.16-2.52,3.62-.24,1.05-.77,3.03,1.31,5.74-.33-.86-.38-.95-.47-2.01.02-.78.28-1.58.92-2.45,1.61-2.18,4.64-3.41,7.19-4.23,8.78-2.81,16.69-5.52,24.38-10.25,19.93-12.25,36.5-36.03,33-59.61"/>
  </g>
</svg>